<svg xmlns:xlink="http://www.w3.org/1999/xlink" xmlns:dc="http://purl.org/dc/elements/1.1/" xmlns:cc="http://creativecommons.org/ns#" xmlns:rdf="http://www.w3.org/1999/02/22-rdf-syntax-ns#" xmlns:svg="http://www.w3.org/2000/svg" xmlns="http://www.w3.org/2000/svg" xmlns:inkscape="http://www.inkscape.org/namespaces/inkscape" version="1.1" width="315.9" height="72.6" viewBox="0 0 315.9 72.6" xml:space="preserve"> <style>.background{fill-opacity: 0;} path{fill: #ffffff !important;} .style0{fill:  #ffffff;fill-rule:  nonzero;}.style1{fill:  #aeacac;fill-rule:  nonzero;}.style2{fill:  #1565af;fill-rule:  nonzero;}</style> <metadata> <rdf:RDF> <cc:Work rdf:about=""> <dc:format>image/svg+xml</dc:format> <dc:type rdf:resource="http://purl.org/dc/dcmitype/StillImage"/> </cc:Work> </rdf:RDF> </metadata> <defs/> <g transform="matrix(1.25,0,0,-1.25,0,72.625)"> <g> <path d="m0 0 252.7 0 0 58.1 L0 58.1 0 0 z" inkscape:connector-curvature="0" class="style0 background"/> <path d="m36.5 9.8 c-2.3 0.2 -3.4 3.9 -3.3 8.6 0.2 4.7 1.1 9.1 3.4 9.5 l0.9 0.1 c0.5 -5.5 2.3 -9.5 5.3 -9.8 l12 0.1 c-0.6 -5.2 -2.5 -8.2 -4.6 -8.4 L36.5 9.8 " inkscape:connector-curvature="0" class="style0"/> <path d="m36.5 9.8 c-2.3 0.2 -3.4 3.9 -3.3 8.6 0.2 4.7 1.1 9.1 3.4 9.5 l0.9 0.1 c0.5 -5.5 2.3 -9.5 5.3 -9.8 l12 0.1 c-0.6 -5.2 -2.5 -8.2 -4.6 -8.4 L36.5 9.8 " inkscape:connector-curvature="0" class="style1"/> <path d="m22.2 26.3 c-1.5 0.1 -2.2 2.5 -2.1 5.5 0.1 3.1 0.7 5.9 2.2 6.1 l9.4 1.4 c0.1 0 0.2 0.1 0.4 0.1 1.3 0 2.2 -2.8 2.1 -6.5 -0.2 -4 -1.6 -6.3 -3 -6.5 l-8.9 -0.1 " inkscape:connector-curvature="0" class="style0"/> <path d="m22.2 26.3 c-1.5 0.1 -2.2 2.5 -2.1 5.5 0.1 3.1 0.7 5.9 2.2 6.1 l9.4 1.4 c0.1 0 0.2 0.1 0.4 0.1 1.3 0 2.2 -2.8 2.1 -6.5 -0.2 -4 -1.6 -6.3 -3 -6.5 l-8.9 -0.1 " inkscape:connector-curvature="0" class="style1"/> <path d="m12.1 39.1 c-1 0.1 -1.5 1.8 -1.5 3.9 0.1 2.1 0.5 4.1 1.5 4.3 l6.6 0.9 c0.1 0 0.2 0 0.2 0 0.9 0 1.6 -1.9 1.4 -4.5 -0.1 -2.8 -1.1 -4.4 -2.1 -4.5 l-6.2 -0 " inkscape:connector-curvature="0" class="style0"/> <path d="m12.1 39.1 c-1 0.1 -1.5 1.8 -1.5 3.9 0.1 2.1 0.5 4.1 1.5 4.3 l6.6 0.9 c0.1 0 0.2 0 0.2 0 0.9 0 1.6 -1.9 1.4 -4.5 -0.1 -2.8 -1.1 -4.4 -2.1 -4.5 l-6.2 -0 " inkscape:connector-curvature="0" class="style1"/> <path d="m43.5 20.7 c-2.5 0.2 -3.8 4.4 -3.6 9.5 0.2 5.2 1.2 10.1 3.8 10.5 l16.2 2.3 c0.2 0.1 0.4 0.1 0.6 0.1 2.3 0 3.8 -4.8 3.5 -11.2 -0.3 -6.9 -2.7 -10.9 -5.2 -11.1 l-15.2 -0.1 " inkscape:connector-curvature="0" class="style0"/> <path d="m43.5 20.7 c-2.5 0.2 -3.8 4.4 -3.6 9.5 0.2 5.2 1.2 10.1 3.8 10.5 l16.2 2.3 c0.2 0.1 0.4 0.1 0.6 0.1 2.3 0 3.8 -4.8 3.5 -11.2 -0.3 -6.9 -2.7 -10.9 -5.2 -11.1 l-15.2 -0.1 " inkscape:connector-curvature="0" class="style2"/> <path d="m104.5 28.6 -4.8 -8.8 -5.6 0 6.5 11.3 -5.9 10.4 5.9 -0 3.9 -8 3.9 8 5.9 -0 -5.9 -10.4 6.5 -11.3 -5.6 0 -4.8 8.8 " inkscape:connector-curvature="0" class="style2"/> <path d="m124.7 26.7 c-0 -0.4 0 -0.8 0 -1.2 0 -0.4 0.1 -0.7 0.3 -1 0.2 -0.3 0.5 -0.5 0.9 -0.6 0.4 -0.2 1 -0.2 1.7 -0.2 l3.1 -0 0.4 -0.4 -0 -1.1 c-0 -0.9 -0.2 -1.5 -0.8 -1.8 -0.5 -0.4 -1.4 -0.5 -2.7 -0.5 l-1.3 0 c-1.3 0 -2.4 0.1 -3.3 0.4 -0.9 0.3 -1.6 0.6 -2.1 1.1 -0.6 0.5 -0.9 1.1 -1.2 1.8 -0.2 0.7 -0.4 1.5 -0.4 2.3 l0 12.2 -3 0 0 3.5 3 0.2 1.3 5.9 3.9 -0 -0 -5.6 6.1 -0 -0 -3.9 -6.1 0 -0 -10.9 " inkscape:connector-curvature="0" class="style2"/> <path d="m145.3 37.8 -5.2 0 -0 -18 -5.2 0 0 21.5 c1.7 0.1 3.1 0.2 4.1 0.3 1 0.1 1.9 0.1 2.5 0.1 0.7 0 1.3 0 1.8 0 0.6 0 1.2 0 2 -0 l-0 -3.9 " inkscape:connector-curvature="0" class="style2"/> <path d="m161.3 23.4 0 5.6 -6 0 c-0.6 0 -1.1 -0.1 -1.4 -0.2 -0.4 -0.1 -0.6 -0.3 -0.8 -0.5 -0.2 -0.2 -0.3 -0.5 -0.4 -0.7 -0 -0.3 -0.1 -0.6 -0.1 -0.9 l-0 -1 c-0 -0.3 0 -0.6 0.1 -0.9 0 -0.3 0.2 -0.5 0.4 -0.8 0.2 -0.2 0.5 -0.4 0.8 -0.5 0.4 -0.1 0.8 -0.2 1.4 -0.2 l6 -0 zm-11.7 14.1 -0.4 0.4 0 1.1 c0 0.9 0.2 1.5 0.8 1.8 0.5 0.4 1.4 0.5 2.7 0.5 l6.5 -0 c1.3 -0 2.4 -0.2 3.3 -0.5 0.9 -0.3 1.7 -0.7 2.3 -1.3 0.6 -0.5 1.1 -1.2 1.3 -1.9 0.3 -0.7 0.4 -1.5 0.4 -2.4 l-0 -15.5 c-1.7 -0.1 -3.2 -0.2 -4.4 -0.3 -1.2 -0.1 -2.2 -0.1 -3.2 -0.1 -0.9 -0 -1.7 -0 -2.4 -0 -0.7 0 -1.4 0 -2.2 0 -1.3 0 -2.4 0.1 -3.3 0.4 -0.9 0.3 -1.6 0.6 -2.1 1.1 -0.6 0.5 -0.9 1.1 -1.2 1.8 -0.2 0.7 -0.4 1.5 -0.4 2.3 l0 2.8 c0 0.8 0.1 1.6 0.4 2.3 0.2 0.7 0.6 1.3 1.2 1.8 0.6 0.5 1.3 0.8 2.1 1.1 0.9 0.3 2 0.4 3.3 0.4 0.7 0 1.2 -0 1.5 -0 0.4 -0 0.8 -0 1.2 -0 0.4 -0 0.9 -0.1 1.5 -0.1 0.6 -0.1 1.5 -0.2 2.7 -0.3 l0 0.9 c0 0.5 -0 1 -0.1 1.4 -0.1 0.5 -0.2 0.8 -0.5 1.2 -0.3 0.3 -0.6 0.6 -1.1 0.8 -0.5 0.2 -1.1 0.3 -2 0.3 l-8 0 " inkscape:connector-curvature="0" class="style2"/> <path d="m186.9 19.7 0 11.8 -10.4 0 -0 -11.8 -5.4 0 0 26.9 5.4 -0 -0 -10.9 10.4 -0 0 10.9 5.4 -0 -0 -26.9 -5.4 0 " inkscape:connector-curvature="0" class="style2"/> <path d="m207.4 23.6 c1.3 -0 2.2 0.2 2.7 0.6 0.5 0.4 0.7 1.1 0.7 2 l0 8.7 c0 0.9 -0.2 1.6 -0.7 2 -0.5 0.4 -1.4 0.6 -2.7 0.6 l-1.8 0 c-1.3 0 -2.2 -0.2 -2.7 -0.6 -0.5 -0.4 -0.7 -1.1 -0.7 -2 l-0 -8.7 c-0 -0.9 0.2 -1.6 0.7 -2 0.5 -0.4 1.4 -0.6 2.7 -0.6 l1.8 -0 zm-3.5 -3.9 c-1.3 0 -2.4 0.1 -3.3 0.4 -0.9 0.3 -1.6 0.6 -2.1 1.1 -0.6 0.5 -0.9 1.1 -1.2 1.8 -0.2 0.7 -0.4 1.5 -0.4 2.3 l0 10.6 c0 0.8 0.1 1.6 0.4 2.3 0.2 0.7 0.6 1.3 1.2 1.8 0.6 0.5 1.3 0.8 2.1 1.1 0.9 0.3 2 0.4 3.3 0.4 l5.2 -0 c1.3 -0 2.4 -0.1 3.3 -0.4 0.9 -0.3 1.6 -0.6 2.1 -1.1 0.6 -0.5 0.9 -1.1 1.2 -1.8 0.2 -0.7 0.4 -1.5 0.4 -2.3 l-0 -10.6 c-0 -0.8 -0.1 -1.6 -0.4 -2.3 -0.2 -0.7 -0.6 -1.3 -1.2 -1.8 -0.6 -0.5 -1.3 -0.9 -2.1 -1.1 -0.9 -0.3 -2 -0.4 -3.3 -0.4 l-5.2 0 " inkscape:connector-curvature="0" class="style2"/> <path d="m234.5 26.4 0 8.5 c0 0.4 -0 0.8 -0 1.1 -0 0.4 -0.1 0.6 -0.3 0.9 -0.2 0.2 -0.4 0.4 -0.8 0.6 -0.4 0.1 -0.9 0.2 -1.6 0.2 l-6 0 -0 -14.3 5.7 -0 c0.8 0 1.3 0.1 1.7 0.2 0.4 0.1 0.7 0.4 0.9 0.6 0.2 0.3 0.3 0.6 0.3 1 0 0.4 0.1 0.8 0.1 1.2 zm-1.7 -6.9 c-0.3 0 -0.7 0 -1.1 0 -0.4 0 -0.9 0 -1.4 0 -0.5 0 -1.2 0.1 -1.9 0.1 -0.7 0.1 -1.6 0.2 -2.6 0.3 l-0 -8.9 -5.2 0 0 30.2 c1.7 0.1 3.2 0.2 4.4 0.3 1.2 0.1 2.2 0.1 3.2 0.1 0.9 0 1.7 0 2.4 0 0.7 0 1.5 -0 2.2 -0 1.3 0 2.4 -0.1 3.3 -0.4 0.9 -0.3 1.6 -0.6 2.1 -1.1 0.6 -0.5 0.9 -1.1 1.2 -1.8 0.2 -0.7 0.4 -1.5 0.4 -2.3 l-0 -11 c0 -0.8 -0.1 -1.6 -0.4 -2.3 -0.2 -0.7 -0.6 -1.3 -1.2 -1.8 -0.6 -0.5 -1.3 -0.8 -2.1 -1.1 -0.9 -0.3 -2 -0.4 -3.3 -0.4 " inkscape:connector-curvature="0" class="style2"/> <path d="m78.8 41.7 c0.5 0.6 1.6 0.8 3.1 0.8 l11.1 -0 0.4 0.4 0 1.3 c0 0.9 -0.2 1.5 -0.8 1.8 -0.5 0.4 -1.4 0.5 -2.7 0.6 l-10.4 0 c-1.3 0 -2.4 -0.1 -3.3 -0.4 -0.9 -0.3 -1.6 -0.6 -2.1 -1.1 -0.6 -0.5 -0.9 -1.1 -1.2 -1.8 -0.2 -0.7 -0.4 -1.5 -0.4 -2.3 l-0 -3.4 c0 -0.1 0 -0.3 0 -0.4 l0 -7.4 c-0 -0.2 -0 -0.3 -0 -0.5 l-0 -4.1 c0 -0.8 0.1 -1.6 0.4 -2.3 0.2 -0.7 0.6 -1.3 1.2 -1.8 0.6 -0.5 1.3 -0.9 2.1 -1.1 0.9 -0.3 2 -0.4 3.3 -0.4 l10.4 -0 c1.3 -0 2.2 0.2 2.7 0.5 0.5 0.4 0.8 1 0.8 1.9 l0 1.3 -0.4 0.4 -11.1 0 c-1.5 0 -2.5 0.3 -3.1 0.9 -0.5 0.6 -0.8 1.3 -0.8 2.2 l0 1.7 c0 0.8 0.2 1.6 0.7 2.1 0.5 0.6 1.4 0.9 2.7 0.9 l7.2 -0 0 3.9 -7.2 0 c-1.3 0 -2.2 0.3 -2.7 0.9 -0.5 0.6 -0.7 1.3 -0.7 2.1 l0 1 c0 0.9 0.3 1.6 0.8 2.2 " inkscape:connector-curvature="0" class="style2"/> </g> </g> </svg>